<svg xmlns="http://www.w3.org/2000/svg" width="44.422" height="31.489" viewBox="0 0 44.422 31.489"><path id="Path_2" data-name="Path 2" d="M39.242 74.535H5.181A5.18 5.18 0 000 79.715v21.129a5.18 5.18 0 005.181 5.18h34.061a5.18 5.18 0 005.181-5.18V79.715a5.18 5.18 0 00-5.181-5.18zm2.707 27.7l-.986 1.168-13.81-11.266-2.139 2.035a4.145 4.145 0 01-5.606 0l-2.139-2.035-13.809 11.27-.986-1.168 12.965-11.844L2.389 78.13l.772-1.022 19.05 14.435 19.051-14.435.771 1.022-13.05 12.265z" transform="translate(0 -74.535)" fill="#fff"/></svg>