<svg xmlns="http://www.w3.org/2000/svg" width="47" height="47" viewBox="0 0 47 47">
  <path id="Path_1" data-name="Path 1" d="M23.5,0a23.5,23.5,0,0,0-.007,47h.058a8.694,8.694,0,0,0,5.963-2.074,6.53,6.53,0,0,0,2.176-4.841,6.458,6.458,0,0,0-.507-2.481,9.9,9.9,0,0,0,1.037-.683c.381-.271,1.469-1.723.706-2.918a25,25,0,0,0-4.237-4.379,2.116,2.116,0,0,0-2.58.865c-.6.877-1.072.614-1.072.614s-1.7-1.373-4.05-6.116-2.411-6.926-2.411-6.926.076-.537,1.137-.483a2.114,2.114,0,0,0,2.251-1.529,24.937,24.937,0,0,0-.918-6.022C20.56,8.7,18.747,8.683,18.3,8.822S13.249,10.08,12.883,14.9A24.615,24.615,0,0,0,15.54,27.688a24.605,24.605,0,0,0,8.565,9.86,6.215,6.215,0,0,0,4.543.979,3.752,3.752,0,0,1-.947,4.4A6.006,6.006,0,0,1,23.552,44.3H23.5a20.829,20.829,0,1,1,15.118-6.518,1.35,1.35,0,0,0,1.962,1.854A23.5,23.5,0,0,0,23.5,0Z" transform="translate(0 -0.002)" fill="#00b5bb"/>
</svg>
