<svg id="メールの無料アイコンその5_2_" data-name="メールの無料アイコンその5 (2)" xmlns="http://www.w3.org/2000/svg" width="44.422" height="31.489" viewBox="0 0 44.422 31.489">
  <path id="Path_2" data-name="Path 2" d="M39.242,74.535H5.181A5.18,5.18,0,0,0,0,79.715v21.129a5.18,5.18,0,0,0,5.181,5.18H39.242a5.18,5.18,0,0,0,5.181-5.18V79.715A5.18,5.18,0,0,0,39.242,74.535Zm2.707,27.7-.986,1.168L27.153,92.137l-2.139,2.035a4.145,4.145,0,0,1-5.606,0l-2.139-2.035L3.46,103.407l-.986-1.168L15.439,90.395,2.389,78.13l.772-1.022L22.211,91.543,41.262,77.108l.771,1.022L28.983,90.395Z" transform="translate(0 -74.535)" fill="#fff"/>
</svg>
