<svg xmlns="http://www.w3.org/2000/svg" width="34.745" height="29.248" viewBox="0 0 34.745 29.248">
  <path id="Path_2" data-name="Path 2" d="M120.235,127.269a4.871,4.871,0,0,0-1.1-1.612,3.739,3.739,0,0,0-.72-.537,4.959,4.959,0,0,0-.731-.264.783.783,0,0,1-.342-.159l-2.838-7.85a4.747,4.747,0,0,0-1.379-1.777,3.321,3.321,0,0,0-2.158-.825H95.2a3.36,3.36,0,0,0-2.189.824,4.405,4.405,0,0,0-1.352,1.794l-2.831,7.831s-.059.076-.353.16a4.489,4.489,0,0,0-.764.272,3.553,3.553,0,0,0-.715.535,4.9,4.9,0,0,0-1.1,1.608,2.479,2.479,0,0,0-.2.959v10.333a.307.307,0,0,0,.307.307h2.312c0,.046-.006.09-.006.137a4.271,4.271,0,1,0,8.53,0c0-.022,0-.043,0-.065h12.431c0,.022,0,.043,0,.065a4.27,4.27,0,1,0,8.53,0h.032c0-.046,0-.091-.007-.136h2.315a.307.307,0,0,0,.307-.307V128.228A2.41,2.41,0,0,0,120.235,127.269Zm-26.494,4.794a1.854,1.854,0,0,1-1.472.63,1.933,1.933,0,0,1-1.44-.593,1.989,1.989,0,0,1-.594-1.477,2.062,2.062,0,0,1,.578-1.515,1.978,1.978,0,0,1,1.5-.589,1.917,1.917,0,0,1,1.44.571,1.965,1.965,0,0,1,.561,1.429A2.284,2.284,0,0,1,93.741,132.063Zm-.723-8.005,1.9-5.589a1.724,1.724,0,0,1,.266-.413c.008-.01.055-.068.08-.068h15.6c.009,0,.046.016.107.1a3.93,3.93,0,0,1,.353.566l1.855,5.4ZM115.3,132.1a1.938,1.938,0,0,1-1.443.592,1.853,1.853,0,0,1-1.449-.634,2.189,2.189,0,0,1-.587-1.54,1.883,1.883,0,0,1,.586-1.437,2.024,2.024,0,0,1,1.45-.563,1.892,1.892,0,0,1,1.47.6,2.13,2.13,0,0,1,.569,1.5A1.985,1.985,0,0,1,115.3,132.1Z" transform="translate(-85.692 -114.244)" fill="#333"/>
</svg>
