<svg xmlns="http://www.w3.org/2000/svg" width="44" height="30.408" viewBox="0 0 44 30.408">
  <g id="免許証のフリーイラスト2" transform="translate(0 -79.083)">
    <path id="Path_46" data-name="Path 46" d="M43.6,82.189a5.085,5.085,0,0,0-4.686-3.106H5.086A5.085,5.085,0,0,0,0,84.17V104.4a5.087,5.087,0,0,0,5.086,5.087H38.914A5.087,5.087,0,0,0,44,104.4V84.17A5.054,5.054,0,0,0,43.6,82.189ZM41.562,104.4a2.649,2.649,0,0,1-2.648,2.648H5.086A2.648,2.648,0,0,1,2.438,104.4V84.17a2.646,2.646,0,0,1,2.648-2.648H38.914a2.646,2.646,0,0,1,2.648,2.648V104.4Z" transform="translate(0)" fill="#ef8000"/>
    <path id="Path_47" data-name="Path 47" d="M87.984,179.019a3.864,3.864,0,1,0-3.864-3.864A3.864,3.864,0,0,0,87.984,179.019Z" transform="translate(-76.891 -84.284)" fill="#ef8000"/>
    <path id="Path_48" data-name="Path 48" d="M79.257,267.272a.76.76,0,0,0-.568-.042,5.133,5.133,0,0,1-5.407,0,.761.761,0,0,0-.569.042,7.1,7.1,0,0,0-1.676,3.13c-.424,2.545,2.294,3.463,4.948,3.463s5.372-.919,4.948-3.463A7.092,7.092,0,0,0,79.257,267.272Z" transform="translate(-64.892 -171.945)" fill="#ef8000"/>
    <rect id="Rectangle_65" data-name="Rectangle 65" width="17.37" height="1.933" transform="translate(20.044 87.806)" fill="#ef8000"/>
    <rect id="Rectangle_66" data-name="Rectangle 66" width="17.37" height="1.933" transform="translate(20.044 93.263)" fill="#ef8000"/>
    <rect id="Rectangle_67" data-name="Rectangle 67" width="10.776" height="1.933" transform="translate(20.044 98.721)" fill="#ef8000"/>
  </g>
</svg>
