<svg xmlns="http://www.w3.org/2000/svg" width="25.448" height="41.419" viewBox="0 0 25.448 41.419">
  <path id="Path_3" data-name="Path 3" d="M126.155,341.322l-3.525-7.988a2.331,2.331,0,0,0,2.024-2.3v-19.95a2.331,2.331,0,0,0-2.324-2.324h-7.464l2.479-2.479a.768.768,0,0,0,0-1.086l-3.261-3.261a.768.768,0,0,0-1.086,0l-3.261,3.261a.768.768,0,0,0,0,1.086l2.479,2.479h-7.464a2.331,2.331,0,0,0-2.324,2.324v19.95a2.331,2.331,0,0,0,2.024,2.3l-3.525,7.988a1.284,1.284,0,1,0,2.349,1.037l.469-1.063h19.592l.47,1.063a1.284,1.284,0,0,0,2.349-1.037Zm-14.789-35.588,2.175-2.174,2.175,2.174-2.175,2.175Zm-1.786,4.746a.252.252,0,0,1,.251-.251h7.419a.252.252,0,0,1,.251.251v1.276a.253.253,0,0,1-.251.251h-7.419a.253.253,0,0,1-.251-.251ZM106.6,329.506a1.743,1.743,0,1,1,1.744-1.744A1.744,1.744,0,0,1,106.6,329.506Zm13.256,3.85a1.366,1.366,0,0,0,.061.187l.562,1.274H106.6l.562-1.274a1.249,1.249,0,0,0,.061-.187Zm-14.977,5.372.593-1.344h16.14l.593,1.344Zm15.6-9.222a1.743,1.743,0,1,1,1.744-1.744A1.744,1.744,0,0,1,120.482,329.506Zm1.835-8.245a.822.822,0,0,1-.821.82H105.584a.823.823,0,0,1-.821-.82v-6.916a.824.824,0,0,1,.821-.821H121.5a.823.823,0,0,1,.821.821Z" transform="translate(-100.817 -301.705)" fill="#333"/>
</svg>
