<svg xmlns="http://www.w3.org/2000/svg" width="30.144" height="31" viewBox="0 0 30.144 31">
  <g id="カレンダーのフリーアイコン2" transform="translate(-7.073)">
    <path id="Path_55" data-name="Path 55" d="M121.974,6.268a1.754,1.754,0,0,0,1.754-1.754V1.754a1.754,1.754,0,0,0-3.508,0v2.76A1.754,1.754,0,0,0,121.974,6.268Z" transform="translate(-106.296)" fill="#333"/>
    <path id="Path_56" data-name="Path 56" d="M335.6,6.268a1.754,1.754,0,0,0,1.754-1.754V1.754a1.754,1.754,0,0,0-3.508,0v2.76A1.754,1.754,0,0,0,335.6,6.268Z" transform="translate(-306.985)" fill="#333"/>
    <path id="Path_57" data-name="Path 57" d="M32.993,41.287H31.907V43.3a3.3,3.3,0,1,1-6.591,0V41.287H18.973V43.3a3.3,3.3,0,1,1-6.591,0V41.287H11.3a4.224,4.224,0,0,0-4.224,4.224V65.563A4.224,4.224,0,0,0,11.3,69.787h21.7a4.224,4.224,0,0,0,4.224-4.224V45.511A4.224,4.224,0,0,0,32.993,41.287Zm.9,23.535a1.96,1.96,0,0,1-1.957,1.957H12.355A1.96,1.96,0,0,1,10.4,64.822V49.133h23.5V64.822Z" transform="translate(0 -38.787)" fill="#333"/>
    <rect id="Rectangle_77" data-name="Rectangle 77" width="3.099" height="3.1" transform="translate(18.193 22.509)" fill="#333"/>
    <rect id="Rectangle_78" data-name="Rectangle 78" width="3.099" height="3.099" transform="translate(18.193 17.705)" fill="#333"/>
    <rect id="Rectangle_79" data-name="Rectangle 79" width="3.099" height="3.1" transform="translate(13.389 22.509)" fill="#333"/>
    <rect id="Rectangle_80" data-name="Rectangle 80" width="3.099" height="3.099" transform="translate(13.389 17.705)" fill="#333"/>
    <rect id="Rectangle_81" data-name="Rectangle 81" width="3.099" height="3.099" transform="translate(27.801 12.901)" fill="#333"/>
    <rect id="Rectangle_82" data-name="Rectangle 82" width="3.1" height="3.099" transform="translate(22.997 12.901)" fill="#333"/>
    <rect id="Rectangle_83" data-name="Rectangle 83" width="3.1" height="3.099" transform="translate(22.997 17.705)" fill="#333"/>
    <rect id="Rectangle_84" data-name="Rectangle 84" width="3.099" height="3.1" transform="translate(27.801 22.509)" fill="#333"/>
    <rect id="Rectangle_85" data-name="Rectangle 85" width="3.099" height="3.099" transform="translate(27.801 17.705)" fill="#333"/>
    <rect id="Rectangle_86" data-name="Rectangle 86" width="3.1" height="3.1" transform="translate(22.997 22.509)" fill="#333"/>
    <rect id="Rectangle_87" data-name="Rectangle 87" width="3.099" height="3.099" transform="translate(18.193 12.901)" fill="#333"/>
    <rect id="Rectangle_88" data-name="Rectangle 88" width="3.099" height="3.099" transform="translate(13.389 12.901)" fill="#333"/>
  </g>
</svg>
