<svg xmlns="http://www.w3.org/2000/svg" width="23.456" height="20.949" viewBox="0 0 23.456 20.949">
  <g id="注意マークのフリーアイコン" transform="translate(0 -27.359)">
    <path id="Path_58" data-name="Path 58" d="M23.14,44.757l-9.36-16.214a2.368,2.368,0,0,0-4.1,0L.317,44.756a2.368,2.368,0,0,0,2.05,3.552H21.089a2.367,2.367,0,0,0,2.05-3.551Zm-11.411.885a1.466,1.466,0,1,1,1.466-1.466A1.467,1.467,0,0,1,11.728,45.641Zm.9-4.692a.9.9,0,0,1-1.806,0l-.563-6.63a1.466,1.466,0,0,1,2.932,0Z" fill="#333"/>
  </g>
</svg>
