<svg xmlns="http://www.w3.org/2000/svg" width="33.395" height="37.562" viewBox="0 0 33.395 37.562">
  <g id="判子アイコン2" transform="translate(-28.4)">
    <path id="Path_49" data-name="Path 49" d="M61.492,23.254A3.849,3.849,0,0,0,57.946,20.9H50.655a.632.632,0,0,1-.152-.041.789.789,0,0,1-.3-.236,1.8,1.8,0,0,1-.244-.405,4.2,4.2,0,0,1-.3-1.036,9.04,9.04,0,0,1-.111-1.483,18.449,18.449,0,0,1,.423-3.672c.267-1.292.679-2.494,1.043-3.7.181-.6.35-1.206.475-1.823a9.538,9.538,0,0,0,.207-1.9,6.607,6.607,0,1,0-13.214,0,9.56,9.56,0,0,0,.206,1.9,28.231,28.231,0,0,0,.754,2.727c.282.906.563,1.824.764,2.794a18.412,18.412,0,0,1,.423,3.672,8.885,8.885,0,0,1-.114,1.5,4.579,4.579,0,0,1-.215.829,2.436,2.436,0,0,1-.2.428,1.1,1.1,0,0,1-.3.338.6.6,0,0,1-.26.1H32.249A3.849,3.849,0,0,0,28.4,24.753V32.5H61.795V24.753A3.835,3.835,0,0,0,61.492,23.254ZM40.517,6.607a4.556,4.556,0,0,1,.359-1.783,4.6,4.6,0,0,1,1.661-2.017,4.595,4.595,0,0,1,4.343-.422A4.606,4.606,0,0,1,48.9,4.046a4.556,4.556,0,0,1,.782,2.561,7.533,7.533,0,0,1-.166,1.5,26.171,26.171,0,0,1-.7,2.527c-.283.912-.588,1.9-.814,2.985a20.421,20.421,0,0,0-.465,4.084,11.01,11.01,0,0,0,.144,1.846,6.677,6.677,0,0,0,.314,1.2,4.6,4.6,0,0,0,.324.683H41.882c.069-.119.135-.24.193-.367a6.209,6.209,0,0,0,.45-1.539,10.97,10.97,0,0,0,.139-1.82,20.44,20.44,0,0,0-.465-4.084c-.3-1.449-.741-2.721-1.087-3.871-.174-.575-.325-1.12-.43-1.641A7.572,7.572,0,0,1,40.517,6.607ZM59.769,30.475H30.426V24.753a1.8,1.8,0,0,1,.143-.709,1.832,1.832,0,0,1,.661-.8,1.81,1.81,0,0,1,1.019-.311h25.7a1.822,1.822,0,0,1,1.823,1.823v5.723Z" transform="translate(0 0)" fill="#ef8000"/>
    <rect id="Rectangle_68" data-name="Rectangle 68" width="28.139" height="2.784" transform="translate(31.029 34.778)" fill="#ef8000"/>
  </g>
</svg>
