<svg xmlns="http://www.w3.org/2000/svg" width="43.665" height="43.666" viewBox="0 0 43.665 43.666">
  <g id="拡大アイコン1" transform="translate(2.992 3)">
    <g id="Path_38" data-name="Path 38" transform="translate(-333.283 -333.284)" fill="#ef8000">
      <path d="M 367.8253784179688 372.4506225585938 C 366.5888671875 372.4506225585938 365.4255065917969 371.96923828125 364.549560546875 371.0951843261719 L 358.6962585449219 365.2406921386719 L 357.6358032226563 364.1800231933594 L 358.6963500976563 363.1194763183594 L 363.1265258789063 358.6893310546875 L 364.1872863769531 357.6285705566406 L 365.2479553222656 358.689453125 L 371.1000061035156 364.5426940917969 C 371.9744262695313 365.4153747558594 372.4566040039063 366.5786743164063 372.4566040039063 367.8171081542969 C 372.4566040039063 369.0554504394531 371.9747924804688 370.2192077636719 371.0999450683594 371.0940246582031 C 370.2230529785156 371.9691772460938 369.0604858398438 372.4506225585938 367.8253784179688 372.4506225585938 Z" stroke="none"/>
      <path d="M 367.8253784179688 370.9506225585938 C 368.6610412597656 370.9506225585938 369.4473266601563 370.6241455078125 370.039306640625 370.0333251953125 C 370.6313171386719 369.4413452148438 370.9566040039063 368.6539306640625 370.9566040039063 367.8171081542969 C 370.9566040039063 366.9802856445313 370.6312255859375 366.1940612792969 370.0392456054688 365.6032409667969 L 364.1871948242188 359.75 L 359.7570190429688 364.1801452636719 L 365.6091003417969 370.0333862304688 C 366.201171875 370.6242065429688 366.9873657226563 370.9506225585938 367.8253784179688 370.9506225585938 M 367.8253784179688 373.9506225585938 C 366.1887817382813 373.9506225585938 364.6491394042969 373.3136291503906 363.4900207519531 372.1569519042969 L 357.635498046875 366.3012390136719 L 355.5145874023438 364.179931640625 L 357.6357116699219 362.0588073730469 L 362.0658874511719 357.628662109375 L 364.1874084472656 355.5071411132813 L 366.3087463378906 357.62890625 L 372.1607666015625 363.4821472167969 C 373.3180236816406 364.6371154785156 373.9566040039063 366.1774291992188 373.9566040039063 367.8171081542969 C 373.9566040039063 369.4561157226563 373.3187561035156 370.99658203125 372.1605834960938 372.1546936035156 C 370.9994506835938 373.3135375976563 369.4605712890625 373.9506225585938 367.8253784179688 373.9506225585938 Z" stroke="none" fill="#fff"/>
    </g>
    <g id="Path_39" data-name="Path 39" transform="translate(0 0)" fill="#ef8000">
      <path d="M 26.66114616394043 31.50467300415039 L 25.60046577453613 30.44399452209473 L 23.4431037902832 28.2866382598877 C 20.84184265136719 29.96115875244141 17.78635406494141 30.87185287475586 14.70877647399902 30.87185287475586 L 14.6949462890625 30.87185287475586 C 10.36751651763916 30.87185287475586 6.301896095275879 29.18806457519531 3.247006177902222 26.13066291809082 C 0.1873461455106735 23.07222366333008 -1.495933890342712 19.00743293762207 -1.49212384223938 14.68574333190918 C -1.497243881225586 10.36484336853027 0.1866261512041092 6.298933506011963 3.24928617477417 3.24009370803833 C 6.302986145019531 0.1837837398052216 10.36124610900879 -1.500006198883057 14.67537593841553 -1.500006198883057 C 19.01321601867676 -1.500006198883057 23.08450698852539 0.1838137358427048 26.13929557800293 3.241293668746948 C 29.1995964050293 6.298993587493896 30.88338661193848 10.36424350738525 30.87958526611328 14.68727397918701 C 30.88178825378418 17.77026557922363 29.97076225280762 20.83168411254883 28.29385185241699 23.43621063232422 L 30.4508056640625 25.59394454956055 L 31.51106643676758 26.65458297729492 L 30.45063591003418 27.71505355834961 L 27.72180557250977 30.44397354125977 L 26.66114616394043 31.50467300415039 Z M 14.6937255859375 6.294459342956543 C 12.44900512695313 6.299857616424561 10.3414831161499 7.173176288604736 8.759066581726074 8.753664016723633 C 7.178215980529785 10.33644390106201 6.305266380310059 12.44436359405518 6.3023362159729 14.68784332275391 C 6.305275917053223 16.92857360839844 7.178406238555908 19.03627395629883 8.760886192321777 20.6187629699707 C 10.34426593780518 22.20014381408691 12.45092105865479 23.07384300231934 14.6926212310791 23.07841873168945 C 16.93476104736328 23.07391357421875 19.04229736328125 22.20009422302246 20.6275463104248 20.61778450012207 C 22.20747756958008 19.0378532409668 23.08054542541504 16.93184471130371 23.08510971069336 14.68815803527832 C 23.08054542541504 12.44248104095459 22.20736694335938 10.33474445343018 20.62625694274902 8.752703666687012 C 19.0447998046875 7.173175811767578 16.93769645690918 6.299857616424561 14.6937255859375 6.294459342956543 Z" stroke="none"/>
      <path d="M 26.6611270904541 29.38333320617676 L 29.38995552062988 26.6544132232666 L 26.34492683410645 23.60828399658203 C 26.34955596923828 23.60137367248535 26.34955596923828 23.59445381164551 26.3541259765625 23.58989334106445 C 28.30829620361328 21.03570365905762 29.38186645507813 17.87459373474121 29.37958526611328 14.68595409393311 C 29.38303565979004 10.76621341705322 27.8553352355957 7.0762939453125 25.07816696166992 4.301483631134033 C 22.30681610107422 1.527693748474121 18.62498664855957 -6.257934728637338e-06 14.67537593841553 -6.257934728637338e-06 C 10.76136589050293 -6.257934728637338e-06 7.08064603805542 1.527693748474121 4.309286117553711 4.301413536071777 C 1.530936121940613 7.0762939453125 0.003236145712435246 10.76614379882813 0.007876145653426647 14.6870641708374 C 0.004416145849972963 18.60798454284668 1.532116174697876 22.29555320739746 4.308105945587158 25.07044410705566 C 7.080716133117676 27.84533309936523 10.76482582092285 29.37185287475586 14.6949462890625 29.37185287475586 L 14.70877647399902 29.37185287475586 C 17.88938522338867 29.37185287475586 21.04593658447266 28.29821395874023 23.59777641296387 26.34639358520508 C 23.603515625 26.34176445007324 23.60924530029297 26.33947372436523 23.61498641967773 26.33720397949219 L 26.6611270904541 29.38333320617676 M 14.69370174407959 4.793933868408203 C 14.69437694549561 4.793933868408203 14.69486618041992 4.794453620910645 14.69486618041992 4.794453620910645 C 17.33755683898926 4.800193786621094 19.82045555114746 5.827853679656982 21.68722534179688 7.69235372543335 C 23.55171585083008 9.557943344116211 24.58048629760742 12.04202365875244 24.58511543273926 14.68816375732422 C 24.58048629760742 17.33085441589355 23.55171585083008 19.81493377685547 21.68722534179688 21.67942428588867 C 19.81927680969238 23.54391288757324 17.33755683898926 24.57385444641113 14.69258594512939 24.57842445373535 C 12.04989624023438 24.57378387451172 9.566996574401855 23.54384422302246 7.700226306915283 21.67942428588867 C 5.834636211395264 19.81382369995117 4.805796146392822 17.32975387573242 4.8023362159729 14.68588352203369 C 4.805796146392822 12.04202365875244 5.834556102752686 9.559123992919922 7.699056148529053 7.69235372543335 C 9.565826416015625 5.827853679656982 12.04872608184814 4.800193786621094 14.69258594512939 4.794453620910645 C 14.69297981262207 4.794063568115234 14.69336414337158 4.793933868408203 14.69370174407959 4.793933868408203 M 26.66116523742676 33.62600326538086 L 24.5398063659668 31.50465393066406 L 23.20727348327637 30.1721248626709 C 20.60806655883789 31.6021671295166 17.66804504394531 32.37185287475586 14.70877647399902 32.37185287475586 L 14.6949462890625 32.37185287475586 C 9.966626167297363 32.37185287475586 5.524166107177734 30.53188323974609 2.185916185379028 27.19089317321777 C -1.156087756156921 23.8502197265625 -2.995395421981812 19.40975952148438 -2.99212646484375 14.68807029724121 C -2.997039556503296 9.963348388671875 -1.156970977783203 5.520851612091064 2.189296245574951 2.178763628005981 C 5.525236129760742 -1.16002631187439 9.960346221923828 -3.000006198883057 14.67537593841553 -3.000006198883057 C 19.41412544250488 -3.000006198883057 23.86227607727051 -1.159986257553101 27.20041656494141 2.181093692779541 C 30.54376602172852 5.521593570709229 32.38374710083008 9.964163780212402 32.37958526611328 14.68859386444092 C 32.38171005249023 17.65174293518066 31.61168479919434 20.59750175476074 30.1793041229248 23.20064163208008 L 31.51165580749512 24.53347396850586 L 33.63217544555664 26.65476417541504 L 31.51131629943848 28.77570343017578 L 28.78248596191406 31.50462341308594 L 26.66116523742676 33.62600326538086 Z M 7.802342891693115 14.68588447570801 C 7.805797100067139 16.52909851074219 8.522808074951172 18.25935554504395 9.821556091308594 19.55811309814453 C 11.1211051940918 20.85603523254395 12.8512487411499 21.57387733459473 14.69266796112061 21.57841300964355 C 16.5345401763916 21.5738410949707 18.26582908630371 20.85577392578125 19.5678768157959 19.55613327026367 C 20.8635196685791 18.26049041748047 21.58048439025879 16.53107261657715 21.58510398864746 14.68815612792969 C 21.58048439025879 12.84308242797852 20.86329650878906 11.11182403564453 19.56527519226074 9.813043594360352 C 18.2679443359375 8.517290115356445 16.5373477935791 7.799855709075928 14.6937198638916 7.79445743560791 C 12.84934425354004 7.799855709075928 11.11833572387695 8.517292022705078 9.819086074829102 9.814963340759277 C 8.522846221923828 11.11279201507568 7.805797100067139 12.84349918365479 7.802342891693115 14.68588447570801 Z" stroke="none" fill="#fff"/>
    </g>
    <g id="Path_40" data-name="Path 40" transform="translate(-104.584 -104.57)" fill="#ef8000">
      <path d="M 119.2778701782227 127.1380844116211 C 117.6559448242188 127.1380844116211 116.3364028930664 125.8185424804688 116.3364028930664 124.1966094970703 L 116.3364028930664 122.1975250244141 L 114.338493347168 122.1975250244141 C 112.7165603637695 122.1975250244141 111.3970260620117 120.8779830932617 111.3970260620117 119.2560424804688 C 111.3970260620117 117.6341094970703 112.7165603637695 116.3145751953125 114.338493347168 116.3145751953125 L 116.3364028930664 116.3145751953125 L 116.3364028930664 114.3154754638672 C 116.3364028930664 112.6935424804688 117.6559448242188 111.3740005493164 119.2778701782227 111.3740005493164 C 120.8998107910156 111.3740005493164 122.2193603515625 112.6935424804688 122.2193603515625 114.3154754638672 L 122.2193603515625 116.3145751953125 L 124.2184448242188 116.3145751953125 C 125.8403854370117 116.3145751953125 127.1599197387695 117.6341094970703 127.1599197387695 119.2560424804688 C 127.1599197387695 120.8779830932617 125.8403854370117 122.1975250244141 124.2184448242188 122.1975250244141 L 122.2193603515625 122.1975250244141 L 122.2193603515625 124.1966094970703 C 122.2193603515625 125.8185424804688 120.8998107910156 127.1380844116211 119.2778701782227 127.1380844116211 Z" stroke="none"/>
      <path d="M 119.2778701782227 112.8740005493164 C 118.4824066162109 112.8740005493164 117.8364028930664 113.5199890136719 117.8364028930664 114.3154754638672 L 117.8364028930664 117.8145751953125 L 114.338493347168 117.8145751953125 C 113.5419158935547 117.8145751953125 112.8970260620117 118.460563659668 112.8970260620117 119.2560424804688 C 112.8970260620117 120.0515289306641 113.5419158935547 120.6975250244141 114.338493347168 120.6975250244141 L 117.8364028930664 120.6975250244141 L 117.8364028930664 124.1966094970703 C 117.8364028930664 124.9920959472656 118.4824066162109 125.6380844116211 119.2778701782227 125.6380844116211 C 120.0733642578125 125.6380844116211 120.7193603515625 124.9920959472656 120.7193603515625 124.1966094970703 L 120.7193603515625 120.6975250244141 L 124.2184448242188 120.6975250244141 C 125.0139312744141 120.6975250244141 125.6599197387695 120.0515289306641 125.6599197387695 119.2560424804688 C 125.6599197387695 118.460563659668 125.0139312744141 117.8145751953125 124.2184448242188 117.8145751953125 L 120.7193603515625 117.8145751953125 L 120.7193603515625 114.3154754638672 C 120.7193603515625 113.5199890136719 120.0733642578125 112.8740005493164 119.2778701782227 112.8740005493164 M 119.2778701782227 109.8740081787109 C 121.726921081543 109.8740081787109 123.7193603515625 111.8664398193359 123.7193603515625 114.3154754638672 L 123.7193603515625 114.8145751953125 L 124.2184448242188 114.8145751953125 C 126.66748046875 114.8145751953125 128.659912109375 116.807014465332 128.659912109375 119.2560424804688 C 128.659912109375 121.7050857543945 126.66748046875 123.6975250244141 124.2184448242188 123.6975250244141 L 123.7193603515625 123.6975250244141 L 123.7193603515625 124.1966094970703 C 123.7193603515625 126.6456451416016 121.726921081543 128.6380920410156 119.2778701782227 128.6380920410156 C 116.8288421630859 128.6380920410156 114.8364028930664 126.6456451416016 114.8364028930664 124.1966094970703 L 114.8364028930664 123.6975250244141 L 114.338493347168 123.6975250244141 C 111.8894653320313 123.6975250244141 109.8970184326172 121.7050857543945 109.8970184326172 119.2560424804688 C 109.8970184326172 116.807014465332 111.8894653320313 114.8145751953125 114.338493347168 114.8145751953125 L 114.8364028930664 114.8145751953125 L 114.8364028930664 114.3154754638672 C 114.8364028930664 111.8664398193359 116.8288421630859 109.8740081787109 119.2778701782227 109.8740081787109 Z" stroke="none" fill="#fff"/>
    </g>
  </g>
</svg>
